<?xml version="1.0" standalone="no"?>
<!DOCTYPE svg PUBLIC "-//W3C//DTD SVG 20010904//EN"
 "http://www.w3.org/TR/2001/REC-SVG-20010904/DTD/svg10.dtd">
<svg version="1.0" xmlns="http://www.w3.org/2000/svg"
 width="460.000000pt" height="460.000000pt" viewBox="0 0 460.000000 460.000000"
 preserveAspectRatio="xMidYMid meet">
<metadata>
Created by potrace 1.11, written by Peter Selinger 2001-2013
</metadata>
<g transform="translate(0.000000,460.000000) scale(0.100000,-0.100000)"
fill="#000000" stroke="none">
<path d="M2050 4043 c-269 -26 -562 -127 -781 -268 -214 -137 -426 -353 -545
-553 l-26 -43 58 37 c91 58 216 113 322 141 142 37 339 43 482 13 371 -76 675
-330 808 -675 63 -161 94 -355 72 -446 -17 -69 -77 -131 -142 -147 -60 -15
-946 -17 -999 -2 -172 48 -207 276 -55 365 l43 25 361 0 c420 0 388 -12 320
120 -97 190 -295 336 -498 369 -156 26 -285 6 -430 -65 -178 -87 -320 -265
-365 -454 -22 -96 -20 -259 6 -350 62 -227 235 -407 459 -479 35 -12 110 -25
166 -30 108 -10 143 -22 186 -68 95 -100 68 -251 -57 -315 -35 -18 -52 -20
-155 -15 -179 8 -339 58 -495 152 -38 24 -72 42 -73 40 -2 -2 11 -25 29 -52
177 -261 423 -480 688 -612 169 -84 307 -129 502 -162 107 -18 151 -20 324
-16 294 7 468 49 720 172 199 97 201 63 -17 282 -102 103 -193 202 -202 220
-14 29 -16 141 -16 1099 l0 1067 25 43 c27 46 86 87 141 99 84 17 196 -54 222
-141 9 -32 12 -276 12 -1025 l0 -984 158 -158 159 -158 53 58 c327 357 492
865 439 1351 -89 827 -729 1470 -1554 1562 -85 9 -267 11 -345 3z"/>
</g>
</svg>
