<?xml version="1.0" encoding="UTF-8" standalone="no"?>
<svg
   xmlns:dc="http://purl.org/dc/elements/1.1/"
   xmlns:cc="http://creativecommons.org/ns#"
   xmlns:rdf="http://www.w3.org/1999/02/22-rdf-syntax-ns#"
   xmlns:sodipodi="http://sodipodi.sourceforge.net/DTD/sodipodi-0.dtd"
   version="1.1"
   viewBox="0 0 24.058 24.132"
   id="svg6"
   xmlns:svg="http://www.w3.org/2000/svg"
   xmlns="http://www.w3.org/2000/svg"
   sodipodi:docname="arrow-up-icon.svg">

  <g
     transform="translate(-12.953 -18.587)"
     id="g4"
     style="fill:#ffffff;fill-opacity:1">
    <path
       d="m25.182 42.716c1.0312-0.11328 1.8047-0.99609 1.7812-2.0312v-14.473l6.5938 6.5312c0.37891 0.38281 0.89844 0.59766 1.4375 0.59375 0.82812 0.0078 1.5703-0.49609 1.875-1.2617 0.30469-0.76953 0.10547-1.6445-0.5-2.207l-10-9.875-1.4062-1.4062-1.4062 1.4062-10 9.875c-0.79297 0.77734-0.80859 2.0508-0.03125 2.8438s2.0508 0.80859 2.8438 0.03125l6.5938-6.5312v14.473c-0.0078 0.54297 0.20312 1.0625 0.58594 1.4453 0.38281 0.38281 0.90234 0.59375 1.4453 0.58594 0.0625 0.0039 0.125 0.0039 0.1875 0z"
       id="path2"
       style="fill:#ffffff;fill-opacity:1" />
  </g>
</svg>
